<svg x="0" y="0" width="48" height="48" version="1.1" xmlns="http://www.w3.org/2000/svg" xmlns:xlink="http://www.w3.org/1999/xlink"><defs><linearGradient x1="11.68966" y1="18.486" x2="52.57379" y2="45.77746" gradientUnits="userSpaceOnUse" id="color-1"><stop offset="0" stop-color="#000000" stop-opacity="0.85"></stop><stop offset="1" stop-color="#000000" stop-opacity="0"></stop></linearGradient><filter id="dropshadow"><feColorMatrix type="matrix" values="0 0 0 0 .05  0 0 0 0 .15  0 0 0 0 .1  0 0 0 .8 0"></feColorMatrix> <feOffset dx="0" dy="1"></feOffset> <feGaussianBlur stdDeviation="1"></feGaussianBlur> <feComposite in="SourceGraphic"></feComposite></filter></defs><g fill="none" stroke="none" stroke-width="none" stroke-linecap="butt" stroke-linejoin="miter" stroke-miterlimit="none" stroke-dasharray="" stroke-dashoffset="0" font-family="none" font-weight="normal" font-size="none" text-anchor="start" mix-blend-mode="normal"><g fill="#000000" stroke="none" stroke-width="1" stroke-miterlimit="4" font-family="&quot;Open Sans&quot;, sans-serif" font-size="14"></g><path d="M3,24c0,-11.59798 9.40202,-21 21,-21c11.59798,0 21,9.40202 21,21c0,11.59798 -9.40202,21 -21,21c-11.59798,0 -21,-9.40202 -21,-21z" fill="#1cd8d2" stroke-width="1" stroke-miterlimit="10" font-family="sans-serif" font-size="12" filter="url(#dropshadow)"></path><path d="M29.64865,44.23158c-0.02726,-0.02617 -0.05425,-0.05262 -0.08096,-0.07933l-16.26345,-16.26345c-0.99758,-0.99757 -1.61458,-2.37244 -1.61458,-3.8888c0,-3.04168 2.48258,-5.51401 5.53965,-5.50888l0.00001,0.00001c1.48237,0 2.87241,0.57448 3.91879,1.61573l1.29771,1.14896c0,0 1.45089,1.45089 1.45089,1.45089l0.09816,-0.08649c0,0 1.46691,1.46691 1.46691,1.46691l0.00001,0l-1.46178,-1.46178l2.89806,-2.56465c0,0 0.00001,0.00001 0.00001,0.00001c1.00022,-1.00022 2.39539,-1.5747 3.87262,-1.5747c1.53303,0 2.9216,0.62173 3.92507,1.6252l9.53618,9.53618c-1.96588,7.0578 -7.52567,12.61789 -14.58329,14.5842z" fill="url(#color-1)" stroke-width="1" stroke-miterlimit="10" font-family="sans-serif" font-size="12"></path><path d="M36.31034,24c0,3.04168 -2.48258,5.51401 -5.54478,5.51401c-1.47724,0 -2.86728,-0.56935 -3.91366,-1.6106l-1.29771,-1.14896l1.54905,-1.37465l1.16435,1.03099c0.70272,0.69246 1.5747,1.05151 2.5031,1.05151c1.91836,0 3.47767,-1.55418 3.47767,-3.46228c0,-1.9081 -1.55931,-3.46228 -3.47767,-3.46228c-0.9284,0 -1.80039,0.35905 -2.45694,1.0156l-2.7647,2.44668l0.00513,0.00513l-1.54905,1.37465l-0.00513,-0.00513l-2.89806,2.56978c-1.00534,0.99509 -2.39539,1.56957 -3.87263,1.56957c-3.05707,0 -5.53965,-2.47233 -5.53965,-5.51401c0,-3.04168 2.48258,-5.51401 5.53965,-5.50888c1.48237,0 2.87241,0.57448 3.91879,1.61573l1.29771,1.14896l-1.54905,1.36953l-1.16435,-1.03099c-0.70272,-0.69759 -1.5747,-1.05664 -2.5031,-1.05664c-1.91836,0 -3.47767,1.55418 -3.47767,3.46228c0,1.9081 1.55931,3.46228 3.47767,3.46228c0.9284,0 1.80039,-0.35905 2.45694,-1.01047l2.7647,-2.45181l-0.01026,-0.01026l1.55418,-1.36953l0.00513,0.00513l2.89806,-2.56465c1.00021,-1.00021 2.39539,-1.5747 3.87263,-1.5747c3.05707,0 5.53965,2.47233 5.53965,5.51401z" fill="#ffffff" stroke="none" stroke-width="0" stroke-miterlimit="4" font-family="&quot;Open Sans&quot;, sans-serif" font-size="14"></path></g></svg>